<svg id="Layer_1" data-name="Layer_1" xmlns="http://www.w3.org/2000/svg" viewBox="0 0 510.24 198.43"><defs><style>.cls-2{fill:#fff;}</style></defs><polygon class="cls-2" points="392.77 73.09 380.21 106.74 380.17 106.87 380.16 106.85 370.42 73.09 369.68 73.09 358.27 73.09 357.53 73.09 347.78 106.85 347.77 106.87 347.73 106.74 335.17 73.09 322.46 73.09 342.09 125.42 354.31 125.42 363.97 92.52 373.63 125.42 385.86 125.42 405.49 73.09 392.77 73.09"/><polygon class="cls-2" points="183.87 151.1 179.69 141.56 177.9 141.56 183.01 153.17 184.65 153.17 189.74 141.56 188.08 141.56 183.87 151.1"/><rect class="cls-2" x="198.68" y="141.56" width="1.66" height="11.61"/><path class="cls-2" d="M217.78,147.58a6.55,6.55,0,0,0-1.38-.57l-1.5-.39a11.2,11.2,0,0,1-1.37-.39,2.68,2.68,0,0,1-1-.58,1.27,1.27,0,0,1-.39-1,1.57,1.57,0,0,1,.29-.92,2,2,0,0,1,.92-.67,4.57,4.57,0,0,1,1.61-.25,6.19,6.19,0,0,1,1.61.23,5.31,5.31,0,0,1,1.57.72l.55-1.33a5.75,5.75,0,0,0-1.72-.76,7.72,7.72,0,0,0-2-.27,6,6,0,0,0-2.51.46,3.24,3.24,0,0,0-1.46,1.21,3,3,0,0,0-.48,1.65,2.7,2.7,0,0,0,.39,1.52,2.82,2.82,0,0,0,1,.94,6.64,6.64,0,0,0,1.38.57q.75.22,1.5.39a11,11,0,0,1,1.36.39,2.8,2.8,0,0,1,1,.59,1.24,1.24,0,0,1,.39,1,1.51,1.51,0,0,1-.3.92,2,2,0,0,1-.93.64,5,5,0,0,1-1.64.23,6.18,6.18,0,0,1-2.14-.38,5.55,5.55,0,0,1-1.69-1l-.62,1.29a5.24,5.24,0,0,0,1.91,1,8,8,0,0,0,2.54.41,6.05,6.05,0,0,0,2.53-.46,3.35,3.35,0,0,0,1.48-1.21,3,3,0,0,0,.48-1.63,2.68,2.68,0,0,0-.38-1.49A2.79,2.79,0,0,0,217.78,147.58Z" transform="translate(0)"/><rect class="cls-2" x="229.05" y="141.56" width="1.66" height="11.61"/><path class="cls-2" d="M251.3,143.11a5.83,5.83,0,0,0-2-1.25,6.81,6.81,0,0,0-2.46-.44,6.62,6.62,0,0,0-2.47.45,6.14,6.14,0,0,0-2,1.25,5.94,5.94,0,0,0,0,8.48,6.08,6.08,0,0,0,2,1.25,6.64,6.64,0,0,0,2.46.45,6.81,6.81,0,0,0,2.46-.44,5.8,5.8,0,0,0,2-1.24,5.73,5.73,0,0,0,1.29-1.89,6.44,6.44,0,0,0,0-4.73A5.53,5.53,0,0,0,251.3,143.11Zm-.25,6a4.44,4.44,0,0,1-1,1.41,4.09,4.09,0,0,1-1.43.94,5,5,0,0,1-3.58,0,4.19,4.19,0,0,1-1.43-.94,4.3,4.3,0,0,1-1-1.41,4.74,4.74,0,0,1-.34-1.78,4.56,4.56,0,0,1,.34-1.76,4.45,4.45,0,0,1,1-1.42,4.21,4.21,0,0,1,1.43-1,5,5,0,0,1,3.58,0,4.12,4.12,0,0,1,1.43,1,4.42,4.42,0,0,1,1.29,3.18A4.74,4.74,0,0,1,251.05,149.14Z" transform="translate(0)"/><polygon class="cls-2" points="271.37 150.21 264.41 141.56 263.05 141.56 263.05 153.17 264.7 153.17 264.7 144.51 271.67 153.17 273.03 153.17 273.03 141.56 271.37 141.56 271.37 150.21"/><path class="cls-2" d="M287.48,141.56l-5.26,11.61h1.71l1.27-2.91h6.17l1.28,2.91h1.74l-5.27-11.61Zm-1.7,7.38,2.51-5.7,2.5,5.7Z" transform="translate(0)"/><path class="cls-2" d="M310.71,149.15a3.72,3.72,0,0,0,1.66-1.38,4.35,4.35,0,0,0,0-4.34,3.68,3.68,0,0,0-1.66-1.39,6.39,6.39,0,0,0-2.6-.48h-4.53v11.61h1.66v-3.54h2.87c.25,0,.47,0,.71-.06l2.52,3.6h1.81l-2.77-3.92A2.07,2.07,0,0,0,310.71,149.15Zm-2.65-.93h-2.82V143h2.82a3.72,3.72,0,0,1,2.41.68,2.34,2.34,0,0,1,.82,1.92,2.39,2.39,0,0,1-.82,1.94A3.72,3.72,0,0,1,308.06,148.22Z" transform="translate(0)"/><polygon class="cls-2" points="326.62 147.68 322.9 141.56 321.13 141.56 325.74 149.12 325.74 153.17 327.38 153.17 327.38 149.15 331.99 141.56 330.35 141.56 326.62 147.68"/><path class="cls-2" d="M359.55,147.58a6.55,6.55,0,0,0-1.38-.57l-1.5-.39a10.71,10.71,0,0,1-1.37-.39,2.68,2.68,0,0,1-1-.58,1.27,1.27,0,0,1-.39-1,1.5,1.5,0,0,1,.29-.92,2,2,0,0,1,.92-.67,4.57,4.57,0,0,1,1.61-.25,6.19,6.19,0,0,1,1.61.23,5.42,5.42,0,0,1,1.57.72l.55-1.33a5.7,5.7,0,0,0-1.73-.76,7.59,7.59,0,0,0-2-.27,6.1,6.1,0,0,0-2.52.46,3.26,3.26,0,0,0-1.45,1.21,3,3,0,0,0-.48,1.65,2.78,2.78,0,0,0,.38,1.52,2.94,2.94,0,0,0,1,.94,6.78,6.78,0,0,0,1.37.57c.51.15,1,.28,1.51.39a11,11,0,0,1,1.36.39,2.75,2.75,0,0,1,1,.59,1.24,1.24,0,0,1,.39,1,1.57,1.57,0,0,1-.29.92,2,2,0,0,1-.93.64,5,5,0,0,1-1.64.23,6.14,6.14,0,0,1-2.14-.38,5.73,5.73,0,0,1-1.7-1l-.61,1.29a5.15,5.15,0,0,0,1.91,1,8,8,0,0,0,2.54.41,6,6,0,0,0,2.52-.46,3.33,3.33,0,0,0,1.49-1.21,3,3,0,0,0,.48-1.63,2.68,2.68,0,0,0-.38-1.49A2.88,2.88,0,0,0,359.55,147.58Z" transform="translate(0)"/><path class="cls-2" d="M380.47,143.11a6,6,0,0,0-2-1.25,6.75,6.75,0,0,0-2.45-.44,6.67,6.67,0,0,0-2.48.45,6,6,0,0,0-1.95,1.25,5.75,5.75,0,0,0-1.3,1.89,6.26,6.26,0,0,0,0,4.71,5.71,5.71,0,0,0,1.3,1.88,6,6,0,0,0,2,1.25,6.65,6.65,0,0,0,2.47.45,6.75,6.75,0,0,0,2.45-.44,6,6,0,0,0,2-1.24,5.7,5.7,0,0,0,1.28-1.89,6.31,6.31,0,0,0,0-4.73A5.5,5.5,0,0,0,380.47,143.11Zm-.26,6a4.28,4.28,0,0,1-.95,1.41,4.05,4.05,0,0,1-1.42.94,4.8,4.8,0,0,1-1.8.33,4.7,4.7,0,0,1-1.78-.33,4.23,4.23,0,0,1-1.44-.94,4.13,4.13,0,0,1-.95-1.41,4.55,4.55,0,0,1-.34-1.78,4.38,4.38,0,0,1,.34-1.76,4.34,4.34,0,0,1,2.39-2.37,4.7,4.7,0,0,1,1.78-.33,4.8,4.8,0,0,1,1.8.33,4.08,4.08,0,0,1,1.42,1,4.42,4.42,0,0,1,1.29,3.18A4.55,4.55,0,0,1,380.21,149.14Z" transform="translate(0)"/><polygon class="cls-2" points="392.21 153.17 393.87 153.17 393.87 148.47 399.69 148.47 399.69 147.05 393.87 147.05 393.87 143 400.4 143 400.4 141.56 392.21 141.56 392.21 153.17"/><polygon class="cls-2" points="408.61 143 412.59 143 412.59 153.17 414.23 153.17 414.23 143 418.21 143 418.21 141.56 408.61 141.56 408.61 143"/><polygon class="cls-2" points="438.98 151.04 435.78 141.56 434.25 141.56 430.99 151 427.85 141.56 426.14 141.56 430.02 153.17 431.8 153.17 434.97 143.89 438.13 153.17 439.88 153.17 443.76 141.56 442.18 141.56 438.98 151.04"/><path class="cls-2" d="M456.38,141.56l-5.26,11.61h1.71l1.27-2.91h6.18l1.27,2.91h1.74L458,141.56Zm-1.69,7.38,2.5-5.7,2.5,5.7Z" transform="translate(0)"/><path class="cls-2" d="M479.61,149.15a3.72,3.72,0,0,0,1.66-1.38,4.35,4.35,0,0,0,0-4.34,3.68,3.68,0,0,0-1.66-1.39,6.35,6.35,0,0,0-2.6-.48h-4.53v11.61h1.66v-3.54H477c.26,0,.48,0,.71-.06l2.52,3.6h1.81l-2.77-3.92A2.07,2.07,0,0,0,479.61,149.15Zm-2.65-.93h-2.82V143H477a3.72,3.72,0,0,1,2.41.68,2.34,2.34,0,0,1,.82,1.92,2.39,2.39,0,0,1-.82,1.94A3.72,3.72,0,0,1,477,148.22Z" transform="translate(0)"/><polygon class="cls-2" points="493.66 151.72 493.66 147.97 499.48 147.97 499.48 146.56 493.66 146.56 493.66 143 500.19 143 500.19 141.56 492 141.56 492 153.17 500.43 153.17 500.43 151.72 493.66 151.72"/><path class="cls-2" d="M204.44,105.38h10.69v9.27a25,25,0,0,1-3.11.79,20,20,0,0,1-3.7.33,20.56,20.56,0,0,1-8.85-1.85,14.56,14.56,0,0,1-6.28-5.49,16.53,16.53,0,0,1-2.32-9.06A18.66,18.66,0,0,1,192,92.6a14,14,0,0,1,3.35-5.1,14.43,14.43,0,0,1,5.32-3.23,20.83,20.83,0,0,1,7.06-1.12,24,24,0,0,1,6.43.84,20.32,20.32,0,0,1,5.72,2.59l5.16-9.6a28.39,28.39,0,0,0-6.17-3.07,33.6,33.6,0,0,0-6.17-1.51,42.05,42.05,0,0,0-5.79-.43,32.88,32.88,0,0,0-11.25,1.89,27.38,27.38,0,0,0-9.19,5.47A25.5,25.5,0,0,0,180.31,88a27.78,27.78,0,0,0-2.22,11.34,26.91,26.91,0,0,0,2.32,11.4,25.2,25.2,0,0,0,6.37,8.58,28.6,28.6,0,0,0,9.4,5.4,34.42,34.42,0,0,0,11.4,1.87,40.9,40.9,0,0,0,6.22-.53,48.7,48.7,0,0,0,6.61-1.49A26.72,26.72,0,0,0,226,122.2V95.52H204.44Z" transform="translate(0)"/><polygon class="cls-2" points="272.74 114.54 248.07 114.54 248.07 103.51 268.52 103.51 268.52 93.57 248.07 93.57 248.07 83.86 272.44 83.86 272.44 73.09 235.67 73.09 235.67 125.41 272.74 125.41 272.74 114.54"/><polygon class="cls-2" points="278.38 84.42 292.32 84.42 292.32 125.41 304.81 125.41 304.81 84.42 318.74 84.42 318.74 73.09 278.38 73.09 278.38 84.42"/><path class="cls-2" d="M413.83,125.41l3.63-10.61h18.76l3.7,10.61h14L434.16,73.09H419.77l-19.54,52.32Zm12.93-39,6.58,18.09H420.26Z" transform="translate(0)"/><path class="cls-2" d="M497.9,118.16a14.12,14.12,0,0,0,2.33-8.11,13.37,13.37,0,0,0-2.59-8.25,14.28,14.28,0,0,0-6.82-5,13.82,13.82,0,0,0,3.72-2.48,12,12,0,0,0,2.63-3.57,10,10,0,0,0,1-4.41q0-6.58-4.78-9.92t-12.78-3.35H448.44l19.71,52.32h12.91a25,25,0,0,0,10.2-1.9A15.21,15.21,0,0,0,497.9,118.16ZM472.73,82.21h6a8.49,8.49,0,0,1,5.51,1.57,5.43,5.43,0,0,1,1.92,4.45,6.39,6.39,0,0,1-.87,3.4,5.62,5.62,0,0,1-2.51,2.17,9.15,9.15,0,0,1-3.87.74h-6.16Zm12.59,32.4q-2,1.65-6.05,1.65h-6.54V103.07h6.95c2.54,0,4.45.57,5.74,1.73a6.25,6.25,0,0,1,1.92,4.88A6,6,0,0,1,485.32,114.61Z" transform="translate(0)"/><path class="cls-2" d="M95.35,126.87a31.21,31.21,0,0,0,6.71-3.75l4.3,4.42a36.09,36.09,0,0,0,5.78-5.61l-4.32-4.44a29.7,29.7,0,0,0,4-6.59l5.94,1.68a35.34,35.34,0,0,0,2.19-7.75L114,103.15a29.76,29.76,0,0,0,.31-4.26,32.05,32.05,0,0,0-.2-3.42l6-1.51a35.06,35.06,0,0,0-2-7.81l-6,1.52A30,30,0,0,0,108.35,81l4.43-4.3a36.08,36.08,0,0,0-5.62-5.77l-4.43,4.3a30.84,30.84,0,0,0-6.59-3.94l1.68-5.95a34.93,34.93,0,0,0-7.75-2.18l-1.68,6a28.71,28.71,0,0,0-4.27-.31,29.59,29.59,0,0,0-3.41.2l-1.52-6a35.77,35.77,0,0,0-7.81,2l1.51,6a31.38,31.38,0,0,0-6.7,3.75l-4.3-4.43a35.69,35.69,0,0,0-5.77,5.62l4.3,4.43a30.91,30.91,0,0,0-3.94,6.6l-5.95-1.69A34.56,34.56,0,0,0,48.35,93l5.95,1.68A28.38,28.38,0,0,0,54,98.89a29.64,29.64,0,0,0,.2,3.42l-6,1.51a34.67,34.67,0,0,0,2,7.81l6-1.52a29.77,29.77,0,0,0,3.75,6.71l-4.43,4.31a35.27,35.27,0,0,0,5.62,5.77l4.43-4.31a30,30,0,0,0,6.59,3.94l-1.68,5.95a34.19,34.19,0,0,0,7.74,2.19l1.69-5.95a30,30,0,0,0,4.26.31,29.37,29.37,0,0,0,3.42-.2l1.52,6a36.35,36.35,0,0,0,7.81-2Zm-11.23-8.32a19.66,19.66,0,1,1,19.66-19.66A19.65,19.65,0,0,1,84.12,118.55Z" transform="translate(0)"/><path class="cls-2" d="M95.78,95.86A12.32,12.32,0,0,0,87,87a13.12,13.12,0,0,0-2.76-.38h-.33a12.25,12.25,0,0,0-11.79,8.91h6v6.57h-6a.29.29,0,0,1,0,.09,12.3,12.3,0,0,0,8.38,8.44,11.81,11.81,0,0,0,2.75.47l.66,0A12.26,12.26,0,0,0,96.14,99.49c0-.19,0-.39,0-.61v-.26a13.27,13.27,0,0,0-.32-2.55A2.09,2.09,0,0,1,95.78,95.86Z" transform="translate(0)"/><path class="cls-2" d="M51.23,133.17A47.28,47.28,0,0,1,84.12,51.91v-27a74.31,74.31,0,1,0,0,148.62v-27a47.15,47.15,0,0,1-32.89-13.33ZM38.94,146.25a65.24,65.24,0,0,1-.79-93.34l6.33,6a56.55,56.55,0,0,0,.39,81.08Z" transform="translate(0)"/><path class="cls-2" d="M93.25,34.85V53.06a44.27,44.27,0,0,1,6.17,1.7l1.67-4,.69-1.65a48.47,48.47,0,0,1,5.74,2.44l-1,2.31-1.4,3.38A47.08,47.08,0,0,1,115.23,64L118,61.25l1.53-1.52a54,54,0,0,1,4.37,4.45l-1.2,1.21-3.1,3.1a46.63,46.63,0,0,1,6.69,10.12L131,76.68l.87-.37a53.17,53.17,0,0,1,2.33,5.8l-1.06.42-4.42,1.84A46.44,46.44,0,0,1,131,96.25h5.79c.05.88.07,1.76.07,2.66,0,1.21,0,2.41-.13,3.59H131a46.17,46.17,0,0,1-2.31,11.87l4.39,1.81.77.33a48.65,48.65,0,0,1-2.42,5.76l-.65-.27-4.47-1.84a45.63,45.63,0,0,1-6.68,10.12l3.24,3.24.58.58a53.73,53.73,0,0,1-4.41,4.39l-.52-.52-3.25-3.25a46,46,0,0,1-10.08,6.87l1.89,4.55.13.3a52.84,52.84,0,0,1-5.75,2.41l-.36-.87-1.63-3.93a45.39,45.39,0,0,1-6.25,1.71V164a65.24,65.24,0,0,0,0-129.12Z" transform="translate(0)"/></svg>