<svg width="338" height="135" viewBox="0 0 338 135" fill="none" xmlns="http://www.w3.org/2000/svg">
<mask id="path-1-inside-1_4302_2919" fill="white">
<path d="M86.0664 102.531V133H63.0195V102.531H0.324219V77.1406L56.1836 2.92188H86.0664V82.2188H104.621V102.531H86.0664ZM63.0195 82.2188V29.4844L24.7383 82.2188H63.0195ZM116.535 69.5234C116.535 58.7161 117.707 49.0807 120.051 40.6172C122.395 32.1536 125.78 24.9922 130.207 19.1328C134.764 13.1432 140.233 8.65104 146.613 5.65625C152.993 2.53125 160.22 0.96875 168.293 0.96875C184.439 0.96875 197.004 7.02344 205.988 19.1328C215.103 31.112 219.66 47.9089 219.66 69.5234C219.66 79.8099 218.488 88.9896 216.145 97.0625C213.801 105.005 210.415 111.776 205.988 117.375C201.561 122.974 196.158 127.271 189.777 130.266C183.527 133.13 176.366 134.562 168.293 134.562C152.017 134.562 139.322 128.833 130.207 117.375C121.092 105.917 116.535 89.9661 116.535 69.5234ZM195.051 69.5234C195.051 38.4036 186.132 22.8438 168.293 22.8438C163.736 22.8438 159.764 23.8203 156.379 25.7734C152.993 27.7266 150.129 30.6562 147.785 34.5625C145.572 38.3385 143.879 43.1562 142.707 49.0156C141.665 54.875 141.145 61.7109 141.145 69.5234C141.145 98.1693 150.194 112.492 168.293 112.492C174.283 112.492 179.23 110.93 183.137 107.805C187.173 104.549 190.168 99.7318 192.121 93.3516C194.074 86.9714 195.051 79.0286 195.051 69.5234ZM319.27 102.531V133H296.223V102.531H233.527V77.1406L289.387 2.92188H319.27V82.2188H337.824V102.531H319.27ZM296.223 82.2188V29.4844L257.941 82.2188H296.223Z"/>
</mask>
<path d="M86.0664 102.531V100.531H84.0664V102.531H86.0664ZM86.0664 133V135H88.0664V133H86.0664ZM63.0195 133H61.0195V135H63.0195V133ZM63.0195 102.531H65.0195V100.531H63.0195V102.531ZM0.324219 102.531H-1.67578V104.531H0.324219V102.531ZM0.324219 77.1406L-1.27376 75.9379L-1.67578 76.4721V77.1406H0.324219ZM56.1836 2.92188V0.921875H55.1857L54.5856 1.71919L56.1836 2.92188ZM86.0664 2.92188H88.0664V0.921875H86.0664V2.92188ZM86.0664 82.2188H84.0664V84.2188H86.0664V82.2188ZM104.621 82.2188H106.621V80.2188H104.621V82.2188ZM104.621 102.531V104.531H106.621V102.531H104.621ZM63.0195 82.2188V84.2188H65.0195V82.2188H63.0195ZM63.0195 29.4844H65.0195V23.3248L61.401 28.3095L63.0195 29.4844ZM24.7383 82.2188L23.1198 81.0438L20.815 84.2188H24.7383V82.2188ZM86.0664 102.531H84.0664V133H86.0664H88.0664V102.531H86.0664ZM86.0664 133V131H63.0195V133V135H86.0664V133ZM63.0195 133H65.0195V102.531H63.0195H61.0195V133H63.0195ZM63.0195 102.531V100.531H0.324219V102.531V104.531H63.0195V102.531ZM0.324219 102.531H2.32422V77.1406H0.324219H-1.67578V102.531H0.324219ZM0.324219 77.1406L1.9222 78.3433L57.7816 4.12456L56.1836 2.92188L54.5856 1.71919L-1.27376 75.9379L0.324219 77.1406ZM56.1836 2.92188V4.92188H86.0664V2.92188V0.921875H56.1836V2.92188ZM86.0664 2.92188H84.0664V82.2188H86.0664H88.0664V2.92188H86.0664ZM86.0664 82.2188V84.2188H104.621V82.2188V80.2188H86.0664V82.2188ZM104.621 82.2188H102.621V102.531H104.621H106.621V82.2188H104.621ZM104.621 102.531V100.531H86.0664V102.531V104.531H104.621V102.531ZM63.0195 82.2188H65.0195V29.4844H63.0195H61.0195V82.2188H63.0195ZM63.0195 29.4844L61.401 28.3095L23.1198 81.0438L24.7383 82.2188L26.3568 83.3937L64.638 30.6593L63.0195 29.4844ZM24.7383 82.2188V84.2188H63.0195V82.2188V80.2188H24.7383V82.2188ZM130.207 19.1328L128.615 17.9218L128.611 17.9271L130.207 19.1328ZM146.613 5.65625L147.463 7.46672L147.478 7.45967L147.493 7.45238L146.613 5.65625ZM205.988 19.1328L204.382 20.3245L204.389 20.3342L204.397 20.3439L205.988 19.1328ZM216.145 97.0625L218.063 97.6285L218.065 97.6201L216.145 97.0625ZM205.988 117.375L207.557 118.615L205.988 117.375ZM189.777 130.266L190.611 132.084L190.619 132.08L190.627 132.076L189.777 130.266ZM156.379 25.7734L157.378 27.5058L156.379 25.7734ZM147.785 34.5625L146.07 33.5335L146.065 33.5423L146.06 33.5511L147.785 34.5625ZM142.707 49.0156L140.746 48.6234L140.742 48.6444L140.738 48.6656L142.707 49.0156ZM183.137 107.805L184.386 109.366L184.392 109.362L183.137 107.805ZM116.535 69.5234H118.535C118.535 58.8568 119.692 49.4061 121.978 41.1509L120.051 40.6172L118.123 40.0834C115.722 48.7554 114.535 58.5755 114.535 69.5234H116.535ZM120.051 40.6172L121.978 41.1509C124.268 32.8838 127.554 25.9616 131.803 20.3385L130.207 19.1328L128.611 17.9271C124.006 24.0228 120.521 31.4235 118.123 40.0834L120.051 40.6172ZM130.207 19.1328L131.799 20.3439C136.174 14.5931 141.395 10.3152 147.463 7.46672L146.613 5.65625L145.763 3.84578C139.072 6.98687 133.354 11.6934 128.615 17.9218L130.207 19.1328ZM146.613 5.65625L147.493 7.45238C153.564 4.47875 160.483 2.96875 168.293 2.96875V0.96875V-1.03125C159.957 -1.03125 152.423 0.58375 145.734 3.86012L146.613 5.65625ZM168.293 0.96875V2.96875C183.858 2.96875 195.805 8.76416 204.382 20.3245L205.988 19.1328L207.594 17.9411C198.203 5.28271 185.02 -1.03125 168.293 -1.03125V0.96875ZM205.988 19.1328L204.397 20.3439C213.153 31.852 217.66 48.1617 217.66 69.5234H219.66H221.66C221.66 47.656 217.053 30.3719 207.58 17.9218L205.988 19.1328ZM219.66 69.5234H217.66C217.66 79.6617 216.505 88.6483 214.224 96.5049L216.145 97.0625L218.065 97.6201C220.472 89.3309 221.66 79.9581 221.66 69.5234H219.66ZM216.145 97.0625L214.226 96.4965C211.943 104.233 208.665 110.765 204.419 116.135L205.988 117.375L207.557 118.615C212.166 112.787 215.658 105.778 218.063 97.6285L216.145 97.0625ZM205.988 117.375L204.419 116.135C200.182 121.494 195.023 125.594 188.928 128.455L189.777 130.266L190.627 132.076C197.292 128.948 202.94 124.454 207.557 118.615L205.988 117.375ZM189.777 130.266L188.944 128.447C182.997 131.173 176.128 132.562 168.293 132.562V134.562V136.562C176.604 136.562 184.058 135.087 190.611 132.084L189.777 130.266ZM168.293 134.562V132.562C152.549 132.562 140.462 127.054 131.772 116.13L130.207 117.375L128.642 118.62C138.182 130.613 151.485 136.562 168.293 136.562V134.562ZM130.207 117.375L131.772 116.13C123.032 105.142 118.535 89.6902 118.535 69.5234H116.535H114.535C114.535 90.2421 119.153 106.691 128.642 118.62L130.207 117.375ZM195.051 69.5234H197.051C197.051 53.838 194.814 41.7497 190.096 33.519C185.283 25.1215 177.934 20.8438 168.293 20.8438V22.8438V24.8438C176.491 24.8438 182.521 28.346 186.626 35.5083C190.827 42.8375 193.051 54.0891 193.051 69.5234H195.051ZM168.293 22.8438V20.8438C163.444 20.8438 159.116 21.8854 155.379 24.0411L156.379 25.7734L157.378 27.5058C160.413 25.7552 164.028 24.8438 168.293 24.8438V22.8438ZM156.379 25.7734L155.379 24.0411C151.654 26.1903 148.56 29.3844 146.07 33.5335L147.785 34.5625L149.5 35.5915C151.698 31.9281 154.333 29.2629 157.378 27.5058L156.379 25.7734ZM147.785 34.5625L146.06 33.5511C143.701 37.5748 141.947 42.62 140.746 48.6234L142.707 49.0156L144.668 49.4079C145.811 43.6925 147.442 39.1023 149.511 35.5739L147.785 34.5625ZM142.707 49.0156L140.738 48.6656C139.67 54.6698 139.145 61.6277 139.145 69.5234H141.145H143.145C143.145 61.7942 143.66 55.0802 144.676 49.3657L142.707 49.0156ZM141.145 69.5234H139.145C139.145 83.9924 141.418 95.1855 146.241 102.818C151.161 110.606 158.614 114.492 168.293 114.492V112.492V110.492C159.873 110.492 153.752 107.217 149.622 100.682C145.395 93.9916 143.145 83.7003 143.145 69.5234H141.145ZM168.293 112.492V114.492C174.644 114.492 180.059 112.828 184.386 109.366L183.137 107.805L181.887 106.243C178.402 109.031 173.921 110.492 168.293 110.492V112.492ZM183.137 107.805L184.392 109.362C188.818 105.792 191.997 100.59 194.033 93.937L192.121 93.3516L190.209 92.7661C188.339 98.8731 185.528 103.307 181.881 106.248L183.137 107.805ZM192.121 93.3516L194.033 93.937C196.064 87.3054 197.051 79.1502 197.051 69.5234H195.051H193.051C193.051 78.907 192.085 86.6373 190.209 92.7661L192.121 93.3516ZM319.27 102.531V100.531H317.27V102.531H319.27ZM319.27 133V135H321.27V133H319.27ZM296.223 133H294.223V135H296.223V133ZM296.223 102.531H298.223V100.531H296.223V102.531ZM233.527 102.531H231.527V104.531H233.527V102.531ZM233.527 77.1406L231.929 75.9379L231.527 76.4721V77.1406H233.527ZM289.387 2.92188V0.921875H288.389L287.789 1.71919L289.387 2.92188ZM319.27 2.92188H321.27V0.921875H319.27V2.92188ZM319.27 82.2188H317.27V84.2188H319.27V82.2188ZM337.824 82.2188H339.824V80.2188H337.824V82.2188ZM337.824 102.531V104.531H339.824V102.531H337.824ZM296.223 82.2188V84.2188H298.223V82.2188H296.223ZM296.223 29.4844H298.223V23.3248L294.604 28.3095L296.223 29.4844ZM257.941 82.2188L256.323 81.0438L254.018 84.2188H257.941V82.2188ZM319.27 102.531H317.27V133H319.27H321.27V102.531H319.27ZM319.27 133V131H296.223V133V135H319.27V133ZM296.223 133H298.223V102.531H296.223H294.223V133H296.223ZM296.223 102.531V100.531H233.527V102.531V104.531H296.223V102.531ZM233.527 102.531H235.527V77.1406H233.527H231.527V102.531H233.527ZM233.527 77.1406L235.125 78.3433L290.985 4.12456L289.387 2.92188L287.789 1.71919L231.929 75.9379L233.527 77.1406ZM289.387 2.92188V4.92188H319.27V2.92188V0.921875H289.387V2.92188ZM319.27 2.92188H317.27V82.2188H319.27H321.27V2.92188H319.27ZM319.27 82.2188V84.2188H337.824V82.2188V80.2188H319.27V82.2188ZM337.824 82.2188H335.824V102.531H337.824H339.824V82.2188H337.824ZM337.824 102.531V100.531H319.27V102.531V104.531H337.824V102.531ZM296.223 82.2188H298.223V29.4844H296.223H294.223V82.2188H296.223ZM296.223 29.4844L294.604 28.3095L256.323 81.0438L257.941 82.2188L259.56 83.3937L297.841 30.6593L296.223 29.4844ZM257.941 82.2188V84.2188H296.223V82.2188V80.2188H257.941V82.2188Z" fill="url(#paint0_linear_4302_2919)" mask="url(#path-1-inside-1_4302_2919)"/>
<defs>
<linearGradient id="paint0_linear_4302_2919" x1="-53.4875" y1="-55.1935" x2="293.667" y2="163.622" gradientUnits="userSpaceOnUse">
<stop stop-color="#B5D9A7"/>
<stop offset="0.980769" stop-color="#00AA8A"/>
</linearGradient>
</defs>
</svg>
