<svg width="32" height="32" viewBox="0 0 32 32" fill="none" xmlns="http://www.w3.org/2000/svg">
<rect width="32" height="32" rx="7" fill="#B5D9A7"/>
<path d="M7.50856 14.1063C7.74297 13.872 8.06086 13.7403 8.39231 13.7403C8.72377 13.7403 9.04165 13.872 9.27606 14.1063L13.6961 18.5263L22.5336 9.68755C22.6496 9.57141 22.7874 9.47927 22.9391 9.41638C23.0907 9.3535 23.2533 9.3211 23.4175 9.32104C23.5817 9.32099 23.7443 9.35327 23.896 9.41605C24.0477 9.47882 24.1855 9.57087 24.3017 9.68692C24.4178 9.80298 24.51 9.94077 24.5729 10.0924C24.6357 10.2441 24.6681 10.4067 24.6682 10.5709C24.6682 10.735 24.636 10.8976 24.5732 11.0493C24.5104 11.2011 24.4184 11.3389 24.3023 11.455L13.6961 22.0613L7.50856 15.8738C7.27422 15.6394 7.14258 15.3215 7.14258 14.99C7.14258 14.6586 7.27422 14.3407 7.50856 14.1063Z" fill="#004437" stroke="#004437"/>
</svg>
