<svg width="100" height="100" viewBox="0 0 100 100" fill="none" xmlns="http://www.w3.org/2000/svg">
<path d="M82.3983 47.483C82.6912 47.7759 83.166 47.7759 83.4589 47.483L88.2319 42.71C88.5248 42.4171 88.5248 41.9423 88.2319 41.6494C87.939 41.3565 87.4641 41.3565 87.1713 41.6494L82.9286 45.892L78.686 41.6494C78.3931 41.3565 77.9182 41.3565 77.6253 41.6494C77.3324 41.9423 77.3324 42.4171 77.6253 42.71L82.3983 47.483ZM16.2969 46.9527C16.2969 47.3669 16.6327 47.7027 17.0469 47.7027C17.4611 47.7027 17.7969 47.3669 17.7969 46.9527H17.0469H16.2969ZM82.9286 46.9527H83.6786C83.6786 42.9183 82.8028 38.9254 81.1034 35.2028L80.4211 35.5142L79.7389 35.8257C81.3504 39.3559 82.1786 43.1366 82.1786 46.9527H82.9286ZM80.4211 35.5142L81.1034 35.2028C79.4042 31.4804 76.9159 28.1031 73.7845 25.2617L73.2805 25.8172L72.7765 26.3726C75.7627 29.0823 78.1272 32.2952 79.7389 35.8257L80.4211 35.5142ZM73.2805 25.8172L73.7845 25.2617C70.6532 22.4204 66.9396 20.17 62.8575 18.6357L62.5937 19.3378L62.3298 20.0398C66.2408 21.5098 69.7901 23.6628 72.7765 26.3726L73.2805 25.8172ZM62.5937 19.3378L62.8575 18.6357C58.7755 17.1015 54.4025 16.3125 49.9877 16.3125V17.0625V17.8125C54.2247 17.8125 58.4187 18.5699 62.3298 20.0398L62.5937 19.3378ZM49.9877 17.0625V16.3125C45.573 16.3125 41.2 17.1015 37.118 18.6357L37.3818 19.3378L37.6457 20.0398C41.5568 18.5699 45.7508 17.8125 49.9877 17.8125V17.0625ZM37.3818 19.3378L37.118 18.6357C33.0358 20.17 29.3223 22.4204 26.191 25.2617L26.695 25.8172L27.199 26.3726C30.1854 23.6628 33.7346 21.5098 37.6457 20.0398L37.3818 19.3378ZM26.695 25.8172L26.191 25.2617C23.0596 28.1032 20.5713 31.4804 18.8721 35.2028L19.5543 35.5142L20.2366 35.8257C21.8483 32.2952 24.2128 29.0823 27.199 26.3726L26.695 25.8172ZM19.5543 35.5142L18.8721 35.2028C17.1727 38.9254 16.2969 42.9183 16.2969 46.9527H17.0469H17.7969C17.7969 43.1366 18.6251 39.3559 20.2366 35.8257L19.5543 35.5142Z" fill="#B5D9A7"/>
<path d="M17.6017 52.5166C17.3088 52.2237 16.834 52.2237 16.5411 52.5166L11.7681 57.2896C11.4752 57.5825 11.4752 58.0573 11.7681 58.3502C12.061 58.6431 12.5359 58.6431 12.8287 58.3502L17.0714 54.1076L21.314 58.3502C21.6069 58.6431 22.0818 58.6431 22.3747 58.3502C22.6676 58.0573 22.6676 57.5825 22.3747 57.2896L17.6017 52.5166ZM83.7031 53.0469C83.7031 52.6327 83.3673 52.2969 82.9531 52.2969C82.5389 52.2969 82.2031 52.6327 82.2031 53.0469H82.9531H83.7031ZM17.0714 53.0469H16.3214C16.3214 57.0813 17.1972 61.0742 18.8966 64.7968L19.5789 64.4854L20.2611 64.1739C18.6496 60.6437 17.8214 56.863 17.8214 53.0469H17.0714ZM19.5789 64.4854L18.8966 64.7968C20.5958 68.5192 23.0841 71.8964 26.2155 74.7379L26.7195 74.1824L27.2235 73.627C24.2373 70.9173 21.8728 67.7044 20.2611 64.1739L19.5789 64.4854ZM26.7195 74.1824L26.2155 74.7379C29.3468 77.5791 33.0604 79.8296 37.1425 81.3638L37.4063 80.6618L37.6702 79.9597C33.7592 78.4898 30.2099 76.3368 27.2235 73.627L26.7195 74.1824ZM37.4063 80.6618L37.1425 81.3638C41.2245 82.8981 45.5975 83.687 50.0123 83.687V82.937V82.187C45.7753 82.187 41.5813 81.4297 37.6702 79.9597L37.4063 80.6618ZM50.0123 82.937V83.687C54.427 83.687 58.8 82.8981 62.882 81.3638L62.6182 80.6618L62.3543 79.9597C58.4432 81.4297 54.2492 82.187 50.0123 82.187V82.937ZM62.6182 80.6618L62.882 81.3638C66.9642 79.8296 70.6777 77.5791 73.809 74.7379L73.305 74.1824L72.801 73.627C69.8146 76.3368 66.2654 78.4898 62.3543 79.9597L62.6182 80.6618ZM73.305 74.1824L73.809 74.7379C76.9404 71.8964 79.4287 68.5192 81.1279 64.7968L80.4457 64.4854L79.7634 64.1739C78.1517 67.7044 75.7872 70.9173 72.801 73.627L73.305 74.1824ZM80.4457 64.4854L81.1279 64.7968C82.8273 61.0742 83.7031 57.0813 83.7031 53.0469H82.9531H82.2031C82.2031 56.863 81.3749 60.6437 79.7634 64.1739L80.4457 64.4854Z" fill="#B5D9A7"/>
<path d="M49.9949 50C49.9949 50 43.9435 43.6719 38.8988 43.6719C33.8542 43.6719 31.7266 46.5051 31.7266 50C31.7266 53.495 33.8551 56.3282 38.8997 56.3282C43.9444 56.3282 49.9949 50 49.9949 50ZM49.9949 50C49.9949 50 56.0463 56.3282 61.091 56.3282C66.1356 56.3282 68.2632 53.495 68.2632 50C68.2632 46.5051 66.1365 43.6719 61.0918 43.6719C56.0472 43.6719 49.9949 50 49.9949 50Z" stroke="#B5D9A7" stroke-width="1.5"/>
</svg>
