<svg width="32" height="16" viewBox="0 0 32 16" fill="none" xmlns="http://www.w3.org/2000/svg">
<path d="M15.5554 16.0003C20.4852 12.0104 27.4123 8.10115 31.1946 6.73088C30.5996 6.36816 29.7072 5.84424 28.6447 5.32031C23.7575 6.85179 18.0203 10.2775 12.9205 14.1061C13.7705 14.6704 14.7054 15.3152 15.5554 16.0003Z" fill="white"/>
<path d="M13.26 5.11835C12.5375 4.79594 11.73 4.47352 11.1351 4.19141C9.26517 5.07805 6.88528 6.36771 3.82544 8.42311C4.50541 8.74553 5.18537 9.14855 5.95033 9.55157C8.28771 7.93949 10.6676 6.36771 13.26 5.11835Z" fill="white"/>
<path d="M17.6794 3.18307C16.7869 2.69944 13.6846 1.65159 11.5597 1.16797C10.9222 1.40978 10.0298 1.7322 9.43481 1.97401C10.1998 2.17552 13.0896 2.90095 15.5545 4.06971C16.192 3.7876 17.0419 3.42488 17.6794 3.18307Z" fill="white"/>
<path d="M7.18213 2.90234C4.41977 4.1114 1.57242 5.76378 0 6.69073C0.552472 6.93254 1.10494 7.13405 1.9124 7.49677C5.39723 5.28016 8.07459 3.90989 9.17954 3.46657C8.37208 3.22476 7.64961 3.02325 7.18213 2.90234Z" fill="white"/>
<path d="M19.7192 2.53902C20.3567 2.33751 21.0791 2.136 21.7166 1.9748C19.8892 1.24936 17.5943 0.483623 15.5544 0C15.2144 0.0806039 14.237 0.322416 13.557 0.523925C14.237 0.685133 16.5744 1.20906 19.7192 2.53902Z" fill="white"/>
<path d="M8.15869 10.8809C8.88115 11.3242 9.73111 11.8884 10.4961 12.3721C15.6383 8.58368 20.6956 5.68194 26.2628 4.02956C25.4978 3.66684 24.8178 3.34443 23.9679 2.94141C20.6106 3.70714 14.9158 5.88345 8.15869 10.8809Z" fill="white"/>
</svg>
