<svg width="24" height="25" viewBox="0 0 24 25" fill="none" xmlns="http://www.w3.org/2000/svg">
<path d="M21.71 20.7894L18 17.1094C19.4401 15.3138 20.1375 13.0347 19.9488 10.7407C19.7601 8.44672 18.6997 6.3122 16.9855 4.77606C15.2714 3.23992 13.0338 2.41893 10.7329 2.48189C8.43207 2.54485 6.24275 3.48698 4.61517 5.11456C2.98759 6.74214 2.04546 8.93145 1.9825 11.2323C1.91954 13.5332 2.74053 15.7708 4.27667 17.4849C5.81281 19.1991 7.94733 20.2595 10.2413 20.4482C12.5353 20.6369 14.8144 19.9395 16.61 18.4994L20.29 22.1794C20.383 22.2731 20.4936 22.3475 20.6154 22.3983C20.7373 22.4491 20.868 22.4752 21 22.4752C21.132 22.4752 21.2627 22.4491 21.3846 22.3983C21.5065 22.3475 21.6171 22.2731 21.71 22.1794C21.8903 21.993 21.991 21.7438 21.991 21.4844C21.991 21.2251 21.8903 20.9759 21.71 20.7894ZM11 18.4994C9.61556 18.4994 8.26218 18.0889 7.11103 17.3197C5.95989 16.5505 5.06268 15.4573 4.53287 14.1782C4.00306 12.8991 3.86443 11.4917 4.13453 10.1338C4.40463 8.77592 5.07131 7.52864 6.05028 6.54967C7.02925 5.5707 8.27653 4.90402 9.63439 4.63392C10.9923 4.36382 12.3997 4.50245 13.6788 5.03226C14.9579 5.56207 16.0511 6.45928 16.8203 7.61042C17.5895 8.76157 18 10.1149 18 11.4994C18 13.3559 17.2625 15.1364 15.9498 16.4492C14.637 17.7619 12.8565 18.4994 11 18.4994Z" fill="white"/>
</svg>
