<svg width="32" height="32" viewBox="0 0 32 32" fill="none" xmlns="http://www.w3.org/2000/svg">
<g clip-path="url(#clip0_2234_3613)">
<path d="M15.4405 6C12.8769 6.00731 10.414 6.99891 8.56055 8.77V7C8.56055 6.73478 8.45519 6.48043 8.26765 6.29289C8.08012 6.10536 7.82576 6 7.56055 6C7.29533 6 7.04098 6.10536 6.85344 6.29289C6.6659 6.48043 6.56055 6.73478 6.56055 7V11.5C6.56055 11.7652 6.6659 12.0196 6.85344 12.2071C7.04098 12.3946 7.29533 12.5 7.56055 12.5H12.0605C12.3258 12.5 12.5801 12.3946 12.7677 12.2071C12.9552 12.0196 13.0605 11.7652 13.0605 11.5C13.0605 11.2348 12.9552 10.9804 12.7677 10.7929C12.5801 10.6054 12.3258 10.5 12.0605 10.5H9.66055C10.5723 9.53701 11.7091 8.81576 12.9687 8.40114C14.2283 7.98651 15.5712 7.89152 16.8767 8.1247C18.1821 8.35788 19.4091 8.91193 20.4473 9.73699C21.4855 10.5621 22.3023 11.6323 22.8243 12.8513C23.3462 14.0704 23.5569 15.4001 23.4374 16.7208C23.318 18.0415 22.872 19.3118 22.1398 20.4174C21.4076 21.5231 20.412 22.4293 19.2426 23.0547C18.0732 23.68 16.7666 24.0049 15.4405 24C15.1753 24 14.921 24.1054 14.7334 24.2929C14.5459 24.4804 14.4405 24.7348 14.4405 25C14.4405 25.2652 14.5459 25.5196 14.7334 25.7071C14.921 25.8946 15.1753 26 15.4405 26C18.0927 26 20.6363 24.9464 22.5116 23.0711C24.387 21.1957 25.4405 18.6522 25.4405 16C25.4405 13.3478 24.387 10.8043 22.5116 8.92893C20.6363 7.05357 18.0927 6 15.4405 6ZM15.4405 12C15.1753 12 14.921 12.1054 14.7334 12.2929C14.5459 12.4804 14.4405 12.7348 14.4405 13V16C14.4405 16.2652 14.5459 16.5196 14.7334 16.7071C14.921 16.8946 15.1753 17 15.4405 17H17.4405C17.7058 17 17.9601 16.8946 18.1477 16.7071C18.3352 16.5196 18.4405 16.2652 18.4405 16C18.4405 15.7348 18.3352 15.4804 18.1477 15.2929C17.9601 15.1054 17.7058 15 17.4405 15H16.4405V13C16.4405 12.7348 16.3352 12.4804 16.1477 12.2929C15.9601 12.1054 15.7058 12 15.4405 12Z" fill="white"/>
</g>
<defs>
<clipPath id="clip0_2234_3613">
<rect width="24" height="24" fill="white" transform="translate(4 4)"/>
</clipPath>
</defs>
</svg>
