<svg width="68" height="68" viewBox="0 0 68 68" fill="none" xmlns="http://www.w3.org/2000/svg">
<path d="M42.93 22.9163L28.4513 37.4288L22.8825 31.86C22.58 31.5067 22.2076 31.2198 21.7889 31.0172C21.3702 30.8146 20.9141 30.7008 20.4493 30.6828C19.9845 30.6649 19.521 30.7432 19.0879 30.9129C18.6548 31.0825 18.2615 31.3399 17.9326 31.6688C17.6037 31.9977 17.3463 32.3911 17.1766 32.8242C17.0069 33.2573 16.9286 33.7208 16.9466 34.1856C16.9645 34.6504 17.0784 35.1064 17.2809 35.5252C17.4835 35.9439 17.7705 36.3162 18.1238 36.6188L26.055 44.5838C26.3704 44.8966 26.7444 45.144 27.1556 45.312C27.5668 45.4799 28.0071 45.5651 28.4513 45.5625C29.3367 45.5588 30.1851 45.2073 30.8138 44.5838L47.6888 27.7088C48.0051 27.395 48.2562 27.0217 48.4275 26.6104C48.5989 26.1992 48.6871 25.758 48.6871 25.3125C48.6871 24.867 48.5989 24.4258 48.4275 24.0146C48.2562 23.6033 48.0051 23.23 47.6888 22.9163C47.0564 22.2877 46.201 21.9348 45.3094 21.9348C44.4178 21.9348 43.5624 22.2877 42.93 22.9163ZM33.75 0C27.0749 0 20.5497 1.9794 14.9995 5.6879C9.44936 9.3964 5.12354 14.6674 2.56908 20.8344C0.0146233 27.0014 -0.653739 33.7874 0.648512 40.3343C1.95076 46.8812 5.16514 52.8948 9.88516 57.6149C14.6052 62.3349 20.6189 65.5493 27.1657 66.8515C33.7126 68.1538 40.4986 67.4854 46.6656 64.9309C52.8326 62.3765 58.1036 58.0507 61.8121 52.5005C65.5206 46.9503 67.5 40.4251 67.5 33.75C67.5 29.3179 66.627 24.9292 64.931 20.8344C63.2349 16.7397 60.7488 13.0191 57.6149 9.88515C54.4809 6.75117 50.7603 4.26516 46.6656 2.56907C42.5708 0.87297 38.1821 0 33.75 0ZM33.75 60.75C28.4099 60.75 23.1897 59.1665 18.7496 56.1997C14.3095 53.2329 10.8488 49.0161 8.80527 44.0825C6.7617 39.1488 6.22701 33.7201 7.26881 28.4826C8.31061 23.2451 10.8821 18.4341 14.6581 14.6581C18.4341 10.8821 23.2451 8.3106 28.4826 7.2688C33.7201 6.227 39.1489 6.76169 44.0825 8.80525C49.0161 10.8488 53.2329 14.3095 56.1997 18.7496C59.1665 23.1897 60.75 28.4099 60.75 33.75C60.75 40.9108 57.9054 47.7784 52.8419 52.8419C47.7784 57.9054 40.9109 60.75 33.75 60.75Z" fill="#004437"/>
</svg>
