<svg width="32" height="32" viewBox="0 0 32 32" fill="none" xmlns="http://www.w3.org/2000/svg">
<rect width="32" height="32" rx="7" fill="#FFE5AE"/>
<g clip-path="url(#clip0_2628_4631)">
<path d="M15.9982 19.163C15.8417 19.163 15.6887 19.2094 15.5585 19.2964C15.4283 19.3834 15.3269 19.507 15.267 19.6516C15.2071 19.7963 15.1914 19.9554 15.2219 20.1089C15.2525 20.2625 15.3279 20.4035 15.4385 20.5142C15.5492 20.6249 15.6903 20.7003 15.8438 20.7308C15.9974 20.7614 16.1565 20.7457 16.3011 20.6858C16.4458 20.6259 16.5694 20.5244 16.6564 20.3943C16.7433 20.2641 16.7898 20.1111 16.7898 19.9545C16.7898 19.7446 16.7064 19.5433 16.5579 19.3948C16.4095 19.2464 16.2082 19.163 15.9982 19.163ZM24.4438 20.3265L18.072 9.24521C17.8661 8.87597 17.5653 8.56842 17.2007 8.35432C16.8361 8.14022 16.421 8.02734 15.9982 8.02734C15.5755 8.02734 15.1603 8.14022 14.7958 8.35432C14.4312 8.56842 14.1304 8.87597 13.9244 9.24521L7.59225 20.3265C7.37917 20.6859 7.26467 21.0951 7.26032 21.5129C7.25597 21.9307 7.36192 22.3422 7.56747 22.7059C7.77302 23.0696 8.07089 23.3727 8.43102 23.5845C8.79114 23.7963 9.20078 23.9093 9.61855 23.9122H22.3779C22.7991 23.9163 23.2137 23.8084 23.5794 23.5994C23.9451 23.3905 24.2486 23.0881 24.4588 22.7231C24.6691 22.3582 24.7785 21.944 24.7759 21.5228C24.7732 21.1017 24.6586 20.6888 24.4438 20.3265ZM23.0745 21.9096C23.0051 22.033 22.9039 22.1356 22.7814 22.2066C22.6588 22.2776 22.5195 22.3144 22.3779 22.3133H9.61855C9.47696 22.3144 9.33764 22.2776 9.21513 22.2066C9.09262 22.1356 8.99139 22.033 8.92201 21.9096C8.85254 21.7893 8.81597 21.6528 8.81597 21.5138C8.81597 21.3749 8.85254 21.2384 8.92201 21.1181L15.2542 10.0367C15.3206 9.90708 15.4215 9.79827 15.5458 9.72229C15.6701 9.64631 15.813 9.60611 15.9587 9.60611C16.1043 9.60611 16.2472 9.64631 16.3715 9.72229C16.4958 9.79827 16.5967 9.90708 16.6631 10.0367L23.0349 21.1181C23.1134 21.2367 23.1585 21.3742 23.1655 21.5163C23.1725 21.6584 23.141 21.7997 23.0745 21.9254V21.9096ZM15.9982 12.8308C15.7883 12.8308 15.587 12.9142 15.4385 13.0626C15.2901 13.2111 15.2067 13.4124 15.2067 13.6223V16.7884C15.2067 16.9984 15.2901 17.1997 15.4385 17.3481C15.587 17.4966 15.7883 17.58 15.9982 17.58C16.2082 17.58 16.4095 17.4966 16.5579 17.3481C16.7064 17.1997 16.7898 16.9984 16.7898 16.7884V13.6223C16.7898 13.4124 16.7064 13.2111 16.5579 13.0626C16.4095 12.9142 16.2082 12.8308 15.9982 12.8308Z" fill="#D36B10"/>
</g>
<defs>
<clipPath id="clip0_2628_4631">
<rect width="18.9966" height="18.9966" fill="white" transform="translate(6.5 6.5)"/>
</clipPath>
</defs>
</svg>
