<svg width="32" height="30" viewBox="0 0 32 30" fill="none" xmlns="http://www.w3.org/2000/svg">
<path d="M15.9638 20.3441C15.6778 20.3441 15.3982 20.4289 15.1604 20.5878C14.9226 20.7467 14.7373 20.9725 14.6278 21.2368C14.5184 21.501 14.4897 21.7918 14.5455 22.0723C14.6013 22.3528 14.7391 22.6104 14.9413 22.8127C15.1435 23.0149 15.4012 23.1526 15.6817 23.2084C15.9622 23.2642 16.253 23.2356 16.5172 23.1261C16.7814 23.0167 17.0073 22.8314 17.1662 22.5935C17.3251 22.3557 17.4099 22.0762 17.4099 21.7902C17.4099 21.4066 17.2575 21.0388 16.9863 20.7676C16.7151 20.4964 16.3473 20.3441 15.9638 20.3441ZM31.3933 22.4698L19.7525 2.22495C19.3762 1.55039 18.8267 0.988511 18.1607 0.597367C17.4946 0.206224 16.7362 0 15.9638 0C15.1914 0 14.433 0.206224 13.767 0.597367C13.1009 0.988511 12.5514 1.55039 12.1751 2.22495L0.606649 22.4698C0.217363 23.1263 0.008186 23.874 0.00023542 24.6372C-0.00771516 25.4004 0.185843 26.1522 0.561367 26.8167C0.936891 27.4812 1.48109 28.0349 2.13902 28.4218C2.79694 28.8088 3.54531 29.0153 4.30857 29.0205H27.6191C28.3884 29.028 29.146 28.8309 29.8141 28.4491C30.4821 28.0674 31.0366 27.5149 31.4207 26.8482C31.8048 26.1815 32.0047 25.4247 31.9999 24.6553C31.9951 23.8859 31.7857 23.1316 31.3933 22.4698ZM28.8916 25.3619C28.7648 25.5874 28.5799 25.7748 28.3561 25.9045C28.1323 26.0343 27.8778 26.1016 27.6191 26.0994H4.30857C4.04988 26.1016 3.79536 26.0343 3.57153 25.9045C3.34771 25.7748 3.16278 25.5874 3.03603 25.3619C2.90911 25.1421 2.8423 24.8927 2.8423 24.6389C2.8423 24.3851 2.90911 24.1357 3.03603 23.9159L14.6045 3.67101C14.7259 3.43415 14.9102 3.23536 15.1373 3.09656C15.3644 2.95775 15.6254 2.8843 15.8915 2.8843C16.1577 2.8843 16.4186 2.95775 16.6457 3.09656C16.8728 3.23536 17.0572 3.43415 17.1785 3.67101L28.8193 23.9159C28.9628 24.1325 29.0452 24.3839 29.0579 24.6434C29.0707 24.903 29.0132 25.1612 28.8916 25.3908V25.3619ZM15.9638 8.77561C15.5803 8.77561 15.2125 8.92796 14.9413 9.19915C14.6701 9.47034 14.5178 9.83815 14.5178 10.2217V16.0059C14.5178 16.3894 14.6701 16.7572 14.9413 17.0284C15.2125 17.2996 15.5803 17.452 15.9638 17.452C16.3473 17.452 16.7151 17.2996 16.9863 17.0284C17.2575 16.7572 17.4099 16.3894 17.4099 16.0059V10.2217C17.4099 9.83815 17.2575 9.47034 16.9863 9.19915C16.7151 8.92796 16.3473 8.77561 15.9638 8.77561Z" fill="#BF6A02"/>
</svg>
